<svg aria-labelledby="title description" xmlns="http://www.w3.org/2000/svg" width="1160" height="395" viewBox="0 0 1160 395" role="img"><title id="title">Phase 2 online learning: scores versus actions and wall time</title><desc id="description">Last-50 completed episode means, not frozen competence. Partial groups show individual learner seeds; complete three-seed groups show means and 95% bootstrap bands. No extrapolation beyond measured support. Missing scores are not zero.</desc><rect width="1160" height="395" fill="white" /><style>text{font-family:sans-serif;font-size:12px;fill:#222} .heading{font-size:16px;font-weight:bold}</style><text x="25" y="27" class="heading">Phase 2 · online training scores (not frozen competence)</text><text x="25" y="48">Last-50 episode mean. Dashed: individual learner seed. Solid + band: three-seed mean and 95% bootstrap CI.</text><line x1="25" x2="47" y1="71" y2="71" stroke="#d55e00" stroke-width="3" /><text x="53" y="75">Native Dreamer</text><line x1="250" x2="272" y1="71" y2="71" stroke="#009e73" stroke-width="3" /><text x="278" y="75">Pretrained Tiny</text><line x1="475" x2="497" y1="71" y2="71" stroke="#e69f00" stroke-width="3" /><text x="503" y="75">Initial Tiny</text><line x1="25" x2="60" y1="95" y2="95" stroke="#444" stroke-width="2" stroke-dasharray="8 3" /><text x="67" y="99">seed 1009</text><line x1="165" x2="200" y1="95" y2="95" stroke="#444" stroke-width="2" stroke-dasharray="3 3" /><text x="207" y="99">seed 2017</text><line x1="305" x2="340" y1="95" y2="95" stroke="#444" stroke-width="2" stroke-dasharray="9 3 2 3" /><text x="347" y="99">seed 3019</text><text x="70" y="127" class="heading">Seaquest · 7/9 runs</text><line x1="70" x2="530" y1="310.0" y2="310.0" stroke="#ddd" /><text x="62" y="314.0" text-anchor="end">6.89</text><text x="70.0" y="329" text-anchor="middle">0</text><line x1="70" x2="530" y1="267.5" y2="267.5" stroke="#ddd" /><text x="62" y="271.5" text-anchor="end">121</text><text x="185.0" y="329" text-anchor="middle">50</text><line x1="70" x2="530" y1="225.0" y2="225.0" stroke="#ddd" /><text x="62" y="229.0" text-anchor="end">236</text><text x="300.0" y="329" text-anchor="middle">100</text><line x1="70" x2="530" y1="182.5" y2="182.5" stroke="#ddd" /><text x="62" y="186.5" text-anchor="end">350</text><text x="415.0" y="329" text-anchor="middle">150</text><line x1="70" x2="530" y1="140.0" y2="140.0" stroke="#ddd" /><text x="62" y="144.0" text-anchor="end">465</text><text x="530.0" y="329" text-anchor="middle">200</text><text x="300.0" y="349" text-anchor="middle">Actual actions (thousands, 8 streams combined)</text><g data-method="initial_tiny" data-seed="1009"><title>Initial Tiny · seed 1009</title><polyline points="79.42,300.89 88.84,296.36 98.26,280.25 107.68,279.73 117.10,278.46 126.52,278.18 135.95,278.21 145.37,276.33 154.79,273.51 164.21,277.82 173.63,279.60 183.05,280.05 192.47,275.15 201.89,271.14 211.31,262.68 220.73,259.26 230.15,252.73 239.57,246.05 249.00,240.41 258.42,235.66 267.84,229.87 277.26,223.78 286.68,217.10 296.10,215.47 305.52,212.05 314.94,209.68 324.36,213.39 333.78,212.35 343.20,211.76 352.62,213.24 362.04,212.65 371.47,208.04 380.89,204.78 390.31,207.90 399.73,208.34 409.15,209.08 418.57,209.68 427.99,210.27 437.41,212.94 446.83,213.54 456.25,217.25 465.67,223.48 475.09,223.48 484.52,228.09 493.94,227.94 503.36,225.86 512.78,223.78 522.20,223.19 530.00,223.78" fill="none" stroke="#e69f00" stroke-width="2" stroke-dasharray="8 3" /></g><g data-method="initial_tiny" data-seed="2017"><title>Initial Tiny · seed 2017</title><polyline points="79.42,294.74 88.84,284.22 98.26,275.86 107.68,276.04 117.10,276.79 126.52,277.25 135.95,278.62 145.37,277.37 154.79,277.97 164.21,279.90 173.63,277.82 183.05,274.55 192.47,269.65 201.89,261.49 211.31,256.89 220.73,253.03 230.15,244.86 239.57,238.33 249.00,233.58 258.42,231.20 267.84,222.59 277.26,217.99 286.68,214.58 296.10,221.26 305.52,222.30 314.94,219.18 324.36,218.14 333.78,216.36 343.20,215.62 352.62,212.79 362.04,209.53 371.47,207.15 380.89,207.75 390.31,204.04 399.73,201.51 409.15,200.47 418.57,200.92 427.99,201.22 437.41,204.33 446.83,205.22 456.25,207.60 465.67,209.68 475.09,212.65 484.52,214.87 493.94,216.51 503.36,226.30 512.78,226.90 522.20,226.60 530.00,225.71" fill="none" stroke="#e69f00" stroke-width="2" stroke-dasharray="3 3" /></g><g data-method="learned_cnn" data-seed="aggregate"><title>Native Dreamer · three-seed mean and 95% CI</title><polygon points="79.42,299.20 88.84,288.06 98.26,285.34 107.68,285.17 117.10,283.07 126.52,284.07 135.95,282.42 145.37,284.05 154.79,285.69 164.21,281.68 173.63,276.04 183.05,271.58 192.47,258.52 201.89,249.61 211.31,246.79 220.73,242.49 230.15,235.06 239.57,234.77 249.00,244.27 258.42,254.36 267.84,262.68 277.26,264.61 286.68,266.54 296.10,268.76 305.52,267.72 314.94,270.99 324.36,271.58 333.78,271.58 343.20,272.92 352.62,269.36 362.04,263.42 371.47,255.40 380.89,253.92 390.31,249.61 399.73,246.79 409.15,232.69 418.57,229.72 427.99,226.90 437.41,216.80 446.83,211.76 456.25,211.01 465.67,204.63 475.09,203.89 484.52,202.70 493.94,202.25 503.36,198.54 512.78,193.35 522.20,192.31 530.00,190.53 530.00,149.11 522.20,157.57 512.78,160.84 503.36,162.91 493.94,167.07 484.52,181.92 475.09,181.92 465.67,191.57 456.25,204.63 446.83,203.74 437.41,207.75 427.99,208.64 418.57,209.53 409.15,214.13 399.73,214.43 390.31,215.62 380.89,215.91 371.47,220.66 362.04,221.26 352.62,219.92 343.20,219.62 333.78,218.44 324.36,216.65 314.94,210.12 305.52,207.15 296.10,200.92 286.68,198.54 277.26,201.96 267.84,206.86 258.42,209.97 249.00,211.46 239.57,217.55 230.15,219.62 220.73,229.12 211.31,233.73 201.89,238.77 192.47,245.60 183.05,255.40 173.63,259.41 164.21,264.01 154.79,271.88 145.37,277.08 135.95,280.29 126.52,280.82 117.10,281.94 107.68,282.87 98.26,280.13 88.84,285.96 79.42,288.80" fill="#d55e00" fill-opacity="0.12" /><polyline points="79.42,294.62 88.84,286.66 98.26,283.04 107.68,283.98 117.10,282.55 126.52,282.25 135.95,281.27 145.37,279.85 154.79,277.37 164.21,273.12 173.63,268.47 183.05,263.76 192.47,252.73 201.89,245.80 211.31,239.27 220.73,235.56 230.15,228.33 239.57,228.04 249.00,226.45 258.42,228.43 267.84,229.52 277.26,230.36 286.68,233.97 296.10,236.20 305.52,236.75 314.94,239.32 324.36,241.40 333.78,242.19 343.20,243.13 352.62,240.70 362.04,237.59 371.47,233.53 380.89,230.96 390.31,227.39 399.73,225.27 409.15,220.37 418.57,218.39 427.99,216.75 437.41,212.70 446.83,208.34 456.25,207.25 465.67,199.78 475.09,195.72 484.52,195.18 493.94,189.54 503.36,185.83 512.78,182.31 522.20,179.14 530.00,175.98" fill="none" stroke="#d55e00" stroke-width="2" stroke-dasharray="none" /></g><g data-method="pretrained_tiny" data-seed="1009"><title>Pretrained Tiny · seed 1009</title><polyline points="79.42,298.95 88.84,290.82 98.26,289.05 107.68,280.01 117.10,281.59 126.52,282.51 135.95,281.96 145.37,281.53 154.79,282.87 164.21,283.76 173.63,282.72 183.05,283.46 192.47,279.60 201.89,278.56 211.31,271.58 220.73,266.54 230.15,262.23 239.57,254.66 249.00,247.39 258.42,242.19 267.84,239.07 277.26,228.98 286.68,223.93 296.10,218.88 305.52,218.14 314.94,216.65 324.36,215.76 333.78,214.87 343.20,214.58 352.62,216.95 362.04,219.48 371.47,217.69 380.89,224.67 390.31,224.52 399.73,224.37 409.15,219.48 418.57,218.58 427.99,220.07 437.41,222.89 446.83,225.12 456.25,225.71 465.67,225.12 475.09,228.38 484.52,227.64 493.94,229.87 503.36,236.99 512.78,238.77 522.20,235.66 530.00,235.81" fill="none" stroke="#009e73" stroke-width="2" stroke-dasharray="8 3" /></g><g data-method="pretrained_tiny" data-seed="2017"><title>Pretrained Tiny · seed 2017</title><polyline points="79.42,300.68 88.84,277.47 98.26,278.41 107.68,277.16 117.10,276.40 126.52,275.25 135.95,276.23 145.37,275.00 154.79,279.15 164.21,279.01 173.63,276.04 183.05,273.07 192.47,268.17 201.89,263.42 211.31,253.92 220.73,250.65 230.15,241.15 239.57,233.28 249.00,228.38 258.42,223.04 267.84,216.65 277.26,212.20 286.68,216.65 296.10,223.04 305.52,226.01 314.94,231.20 324.36,232.84 333.78,230.91 343.20,225.12 352.62,224.97 362.04,224.37 371.47,225.86 380.89,224.52 390.31,223.04 399.73,225.41 409.15,226.75 418.57,225.12 427.99,227.64 437.41,232.54 446.83,233.88 456.25,235.06 465.67,239.22 475.09,238.03 484.52,235.66 493.94,232.54 503.36,230.61 512.78,225.27 522.20,224.82 530.00,216.80" fill="none" stroke="#009e73" stroke-width="2" stroke-dasharray="3 3" /></g><text x="645" y="127" class="heading">Seaquest · 7/9 runs</text><line x1="645" x2="1105" y1="310.0" y2="310.0" stroke="#ddd" /><text x="637" y="314.0" text-anchor="end">6.89</text><text x="645.0" y="329" text-anchor="middle">0</text><line x1="645" x2="1105" y1="267.5" y2="267.5" stroke="#ddd" /><text x="637" y="271.5" text-anchor="end">121</text><text x="760.0" y="329" text-anchor="middle">0.131</text><line x1="645" x2="1105" y1="225.0" y2="225.0" stroke="#ddd" /><text x="637" y="229.0" text-anchor="end">236</text><text x="875.0" y="329" text-anchor="middle">0.261</text><line x1="645" x2="1105" y1="182.5" y2="182.5" stroke="#ddd" /><text x="637" y="186.5" text-anchor="end">350</text><text x="990.0" y="329" text-anchor="middle">0.392</text><line x1="645" x2="1105" y1="140.0" y2="140.0" stroke="#ddd" /><text x="637" y="144.0" text-anchor="end">465</text><text x="1105.0" y="329" text-anchor="middle">0.523</text><text x="875.0" y="349" text-anchor="middle">Run wall time (hours, construction excluded)</text><g data-method="initial_tiny" data-seed="1009"><title>Initial Tiny · seed 1009</title><polyline points="653.75,300.89 663.09,296.36 672.48,280.25 681.90,279.73 691.24,278.46 700.60,278.18 709.99,278.21 719.40,276.33 728.85,273.51 738.26,277.82 747.56,279.60 756.85,280.05 766.17,275.15 775.54,271.14 784.93,262.68 794.40,259.26 803.89,252.73 813.32,246.05 822.85,240.41 832.48,235.66 842.07,229.87 851.55,223.78 860.81,217.10 870.23,215.47 879.48,212.05 888.62,209.68 897.86,213.39 907.07,212.35 916.40,211.76 925.70,213.24 935.04,212.65 944.52,208.04 953.82,204.78 963.21,207.90 972.48,208.34 981.91,209.08 991.38,209.68 1000.83,210.27 1010.37,212.94 1019.90,213.54 1029.34,217.25 1038.81,223.48 1048.21,223.48 1057.68,228.09 1067.04,227.94 1076.47,225.86 1085.97,223.78 1095.42,223.19 1103.20,223.78" fill="none" stroke="#e69f00" stroke-width="2" stroke-dasharray="8 3" /></g><g data-method="initial_tiny" data-seed="2017"><title>Initial Tiny · seed 2017</title><polyline points="653.58,294.74 663.10,284.22 672.45,275.86 682.00,276.04 691.37,276.79 700.89,277.25 710.26,278.62 719.65,277.37 729.08,277.97 738.63,279.90 748.01,277.82 757.46,274.55 766.99,269.65 776.57,261.49 786.00,256.89 795.34,253.03 804.87,244.86 814.40,238.33 823.90,233.58 833.18,231.20 842.67,222.59 851.97,217.99 861.34,214.58 870.70,221.26 880.01,222.30 889.48,219.18 898.94,218.14 908.40,216.36 917.86,215.62 927.42,212.79 936.83,209.53 946.18,207.15 955.59,207.75 965.26,204.04 974.81,201.51 984.19,200.47 993.70,200.92 1003.14,201.22 1012.67,204.33 1022.10,205.22 1031.41,207.60 1040.58,209.68 1050.00,212.65 1059.47,214.87 1068.87,216.51 1078.32,226.30 1087.67,226.90 1097.08,226.60 1105.00,225.71" fill="none" stroke="#e69f00" stroke-width="2" stroke-dasharray="3 3" /></g><g data-method="learned_cnn" data-seed="aggregate"><title>Native Dreamer · three-seed mean and 95% CI</title><polygon points="652.75,298.75 677.80,284.98 702.85,283.10 727.91,278.33 752.96,252.36 778.02,235.16 803.07,252.95 828.12,266.64 853.18,271.12 878.23,271.46 903.29,254.52 928.34,236.23 953.39,217.56 978.45,210.50 1003.50,201.14 1028.56,191.47 1028.56,153.10 1003.50,165.91 978.45,190.67 953.39,206.62 928.34,213.71 903.29,220.75 878.23,219.35 853.18,209.17 828.12,199.92 803.07,210.71 778.02,228.58 752.96,241.84 727.91,262.30 702.85,279.92 677.80,282.78 652.75,288.78" fill="#d55e00" fill-opacity="0.12" /><polyline points="652.75,294.46 677.80,283.79 702.85,281.15 727.91,271.12 752.96,248.58 778.02,231.23 803.07,228.09 828.12,234.72 853.18,238.88 878.23,241.56 903.29,232.81 928.34,221.49 953.39,212.97 978.45,201.16 1003.50,188.07 1028.56,178.36" fill="none" stroke="#d55e00" stroke-width="2" stroke-dasharray="none" /></g><g data-method="pretrained_tiny" data-seed="1009"><title>Pretrained Tiny · seed 1009</title><polyline points="653.57,298.95 662.90,290.82 672.12,289.05 681.40,280.01 690.91,281.59 700.30,282.51 709.64,281.96 719.07,281.53 728.50,282.87 737.82,283.76 747.34,282.72 756.73,283.46 766.13,279.60 775.62,278.56 785.10,271.58 794.45,266.54 803.98,262.23 813.61,254.66 823.15,247.39 832.67,242.19 841.96,239.07 851.25,228.98 860.85,223.93 870.36,218.88 879.82,218.14 889.11,216.65 898.55,215.76 907.90,214.87 917.36,214.58 926.89,216.95 936.31,219.48 945.89,217.69 955.29,224.67 964.87,224.52 974.52,224.37 983.96,219.48 993.29,218.58 1002.70,220.07 1012.02,222.89 1021.42,225.12 1030.69,225.71 1040.19,225.12 1049.56,228.38 1058.93,227.64 1068.26,229.87 1077.60,236.99 1087.11,238.77 1096.56,235.66 1104.41,235.81" fill="none" stroke="#009e73" stroke-width="2" stroke-dasharray="8 3" /></g><g data-method="pretrained_tiny" data-seed="2017"><title>Pretrained Tiny · seed 2017</title><polyline points="653.82,300.68 663.29,277.47 672.81,278.41 682.29,277.16 691.78,276.40 701.16,275.25 710.55,276.23 720.07,275.00 729.50,279.15 738.85,279.01 748.19,276.04 757.77,273.07 767.17,268.17 776.64,263.42 786.14,253.92 795.55,250.65 805.03,241.15 814.32,233.28 823.74,228.38 833.21,223.04 842.67,216.65 852.15,212.20 861.61,216.65 870.86,223.04 880.34,226.01 889.83,231.20 899.35,232.84 908.68,230.91 918.24,225.12 927.54,224.97 936.92,224.37 946.41,225.86 955.74,224.52 965.07,223.04 974.49,225.41 983.82,226.75 993.16,225.12 1002.48,227.64 1011.95,232.54 1021.30,233.88 1030.74,235.06 1040.14,239.22 1049.43,238.03 1058.75,235.66 1068.11,232.54 1077.33,230.61 1086.70,225.27 1096.07,224.82 1103.82,216.80" fill="none" stroke="#009e73" stroke-width="2" stroke-dasharray="3 3" /></g><text x="25" y="384">All episodes (including cutoffs) and unfinished tails remain in JSON. Time means use common measured seed support.</text></svg>
